<svg width="56" height="56" viewBox="0 0 56 56" fill="none" xmlns="http://www.w3.org/2000/svg">
<g clip-path="url(#clip0_1_246)">
<path d="M28 51.3334C15.113 51.3334 4.66666 40.8871 4.66666 28.0001C4.66666 15.1131 15.113 4.66675 28 4.66675C40.887 4.66675 51.3333 15.1131 51.3333 28.0001C51.3333 40.8871 40.887 51.3334 28 51.3334ZM28 46.6667C32.9507 46.6667 37.6986 44.7001 41.1993 41.1994C44.7 37.6987 46.6667 32.9508 46.6667 28.0001C46.6667 23.0494 44.7 18.3014 41.1993 14.8008C37.6986 11.3001 32.9507 9.33341 28 9.33341C23.0493 9.33341 18.3013 11.3001 14.8007 14.8008C11.3 18.3014 9.33333 23.0494 9.33333 28.0001C9.33333 32.9508 11.3 37.6987 14.8007 41.1994C18.3013 44.7001 23.0493 46.6667 28 46.6667ZM24.7847 19.6351L36.169 27.2231C36.297 27.3083 36.402 27.4238 36.4746 27.5593C36.5472 27.6949 36.5852 27.8463 36.5852 28.0001C36.5852 28.1539 36.5472 28.3053 36.4746 28.4408C36.402 28.5764 36.297 28.6919 36.169 28.7771L24.7823 36.3651C24.6419 36.4581 24.479 36.5115 24.3107 36.5194C24.1424 36.5274 23.9752 36.4896 23.8266 36.4102C23.6781 36.3308 23.5538 36.2127 23.4669 36.0683C23.3801 35.924 23.3339 35.7589 23.3333 35.5904V20.4097C23.3336 20.2409 23.3797 20.0754 23.4667 19.9307C23.5537 19.786 23.6782 19.6676 23.8272 19.5881C23.9761 19.5086 24.1438 19.471 24.3124 19.4793C24.481 19.4875 24.6442 19.5414 24.7847 19.6351Z" fill="white"/>
</g>
<defs>
<clipPath id="clip0_1_246">
<rect width="56" height="56" fill="white"/>
</clipPath>
</defs>
</svg>
